<?xml version="1.0" standalone="no"?>
<!DOCTYPE svg PUBLIC "-//W3C//DTD SVG 20010904//EN"
 "http://www.w3.org/TR/2001/REC-SVG-20010904/DTD/svg10.dtd">
<svg version="1.0" xmlns="http://www.w3.org/2000/svg"
 width="964.000000pt" height="620.000000pt" viewBox="0 0 964.000000 620.000000"
 preserveAspectRatio="xMidYMid meet">
<metadata>
Created by potrace 1.11, written by Peter Selinger 2001-2013
</metadata>
<g transform="translate(0.000000,620.000000) scale(0.100000,-0.100000)"
fill="#000000" stroke="none">
<path d="M4590 5904 c-201 -16 -312 -27 -350 -36 -72 -15 -131 -27 -192 -37
-32 -5 -79 -16 -105 -24 -26 -8 -77 -20 -113 -26 -399 -69 -586 -102 -622
-110 -24 -6 -145 -13 -270 -17 -206 -6 -229 -9 -245 -26 -16 -18 -16 -21 -1
-46 15 -25 23 -27 100 -33 173 -13 291 -78 374 -207 66 -102 94 -225 94 -418
l0 -122 -87 -6 c-290 -22 -535 -89 -798 -217 -143 -69 -223 -128 -336 -247
-217 -228 -290 -500 -223 -832 54 -267 113 -338 484 -586 151 -101 184 -120
385 -219 189 -92 341 -150 487 -186 l98 -24 0 -401 c0 -397 0 -403 -25 -500
-75 -294 -250 -463 -548 -528 -39 -9 -67 -41 -67 -76 0 -23 7 -35 33 -50 31
-19 52 -20 894 -20 l862 0 20 26 c24 30 27 72 9 96 -7 9 -62 28 -122 43 -60
15 -116 30 -125 34 -9 5 -34 17 -55 27 -73 35 -141 108 -190 204 -85 164 -89
190 -94 628 -3 274 -1 382 7 382 14 0 247 -106 356 -162 190 -97 373 -240 460
-358 51 -70 113 -201 131 -276 21 -89 15 -217 -14 -300 -12 -33 -44 -109 -73
-169 -80 -167 -190 -267 -426 -388 -147 -75 -367 -159 -528 -202 -62 -16 -282
-55 -415 -74 -256 -35 -558 -33 -775 4 -325 57 -685 242 -863 444 -37 42 -90
107 -117 145 -28 37 -67 89 -87 114 -42 51 -134 230 -150 288 -50 194 -50 299
1 430 91 236 234 364 482 433 65 18 103 21 275 21 169 0 204 -3 234 -18 34
-17 35 -18 34 -75 -2 -78 -17 -91 -134 -121 -52 -13 -102 -27 -111 -31 -9 -3
-33 -38 -53 -77 -32 -62 -36 -78 -36 -145 0 -97 15 -144 61 -197 30 -34 50
-46 101 -60 107 -30 203 -32 289 -6 41 12 88 29 104 37 54 27 114 94 136 153
26 69 36 193 20 255 -15 61 -66 164 -98 201 -14 16 -37 46 -51 68 -20 29 -46
48 -107 77 -119 57 -206 76 -386 84 -147 7 -163 6 -285 -20 -156 -33 -279 -91
-395 -190 -120 -101 -186 -207 -231 -378 -26 -96 -31 -293 -10 -392 18 -84 69
-237 107 -320 63 -139 280 -388 450 -516 203 -152 478 -289 674 -335 293 -68
282 -67 626 -67 297 -1 331 1 475 25 85 14 191 35 235 47 44 12 136 35 205 51
348 81 619 203 866 391 127 96 319 297 377 394 68 114 118 284 148 495 25 183
-10 333 -115 492 -17 26 -53 82 -81 125 -72 113 -199 241 -311 313 -122 79
-366 197 -527 255 -140 50 -182 62 -364 107 l-123 30 0 112 c0 97 3 115 18
129 16 15 48 17 238 17 l219 0 93 -35 c205 -76 353 -167 535 -329 97 -87 169
-173 247 -296 153 -243 303 -468 434 -655 59 -82 117 -166 130 -185 96 -144
382 -485 508 -606 172 -165 414 -350 613 -466 239 -140 465 -232 705 -286 194
-44 310 -56 520 -56 209 1 368 24 479 69 71 29 235 126 321 189 150 110 265
272 343 481 46 123 59 201 64 375 5 156 4 171 -22 265 -66 245 -125 343 -322
535 -111 109 -142 133 -234 182 -150 80 -221 108 -324 129 -167 34 -356 20
-518 -38 -148 -52 -387 -191 -476 -276 -129 -125 -172 -220 -175 -387 -1 -80
3 -103 23 -147 63 -140 265 -233 473 -219 107 7 153 22 211 70 53 43 87 114
94 196 5 48 1 67 -22 119 -55 121 -159 175 -326 169 -102 -3 -118 5 -105 58
10 40 142 165 208 197 75 36 204 75 312 93 110 19 300 14 391 -10 234 -64 505
-301 634 -553 62 -123 81 -381 41 -545 -34 -135 -51 -190 -76 -238 -13 -25
-27 -57 -33 -71 -12 -32 -147 -197 -187 -228 -250 -194 -492 -264 -859 -248
-184 9 -248 20 -374 68 -379 142 -742 486 -1088 1029 -48 74 -105 164 -128
200 -44 68 -151 245 -183 302 -11 18 -56 94 -102 168 -46 74 -91 149 -100 165
-10 17 -71 118 -135 225 -65 107 -125 209 -135 225 -9 17 -71 120 -137 230
-65 110 -143 244 -172 297 -30 53 -64 107 -77 119 l-24 22 53 31 c28 18 67 40
86 51 149 87 442 361 533 500 163 249 225 466 215 760 -16 450 -122 618 -540
859 -103 60 -231 108 -332 125 -234 39 -668 75 -795 65z m140 -224 c178 -12
236 -28 418 -117 138 -68 159 -81 221 -146 157 -164 191 -220 232 -377 19 -76
21 -102 16 -240 -9 -250 -60 -409 -202 -629 -89 -139 -283 -360 -367 -417 -23
-16 -72 -51 -108 -78 -114 -86 -282 -151 -485 -187 -93 -17 -175 -23 -362 -26
l-243 -5 0 526 c0 414 3 526 13 526 41 0 279 -89 366 -137 223 -122 424 -327
471 -480 27 -89 60 -123 116 -123 26 0 47 6 55 17 11 13 15 122 17 596 2 510
1 582 -13 603 -36 55 -82 10 -131 -126 -41 -114 -73 -158 -139 -192 -35 -18
-51 -20 -132 -15 -107 7 -319 42 -379 62 -22 8 -89 24 -147 36 l-107 22 0 312
0 312 31 59 c17 32 41 69 52 82 113 122 384 170 807 142z m-1460 -1819 l0
-739 -87 24 c-372 102 -650 259 -779 441 -91 128 -134 254 -134 393 0 101 16
141 94 245 86 114 207 193 411 265 50 18 99 37 110 41 36 16 289 67 338 68
l47 1 0 -739z"/>
</g>
</svg>
